HIERARCHY
ROOT Hips
{
  OFFSET 2.26061 22.2878 23.7974
  CHANNELS 6 Xposition Yposition Zposition Zrotation Xrotation Yrotation
  JOINT LeftUpLeg
  {
    OFFSET 8.64259 1.95398 -2.38835
    CHANNELS 3 Zrotation Xrotation Yrotation
    JOINT LeftLeg
    {
      OFFSET 43.7702 0 0
      CHANNELS 3 Zrotation Xrotation Yrotation
      JOINT LeftFoot
      {
        OFFSET 40.6238 0 0
        CHANNELS 3 Zrotation Xrotation Yrotation
        JOINT LeftToeBase
        {
          OFFSET 12.7242 0 0
          CHANNELS 3 Zrotation Xrotation Yrotation
          End Site
          {
            OFFSET 0 0 0
          }
        }
      }
    }
  }
  JOINT RightUpLeg
  {
    OFFSET -8.2249 1.95398 -2.59336
    CHANNELS 3 Zrotation Xrotation Yrotation
    JOINT RightLeg
    {
      OFFSET 43.5653 0 0
      CHANNELS 3 Zrotation Xrotation Yrotation
      JOINT RightFoot
      {
        OFFSET 40.6238 0 0
        CHANNELS 3 Zrotation Xrotation Yrotation
        JOINT RightToeBase
        {
          OFFSET 12.7242 0 0
          CHANNELS 3 Zrotation Xrotation Yrotation
          End Site
          {
            OFFSET 0 0 0
          }
        }
      }
    }
  }
  JOINT Spine
  {
    OFFSET 0.165834 0.87714 6.61349
    CHANNELS 3 Zrotation Xrotation Yrotation
    JOINT Spine1
    {
      OFFSET 7.38963 1.71661e-005 0
      CHANNELS 3 Zrotation Xrotation Yrotation
      JOINT Spine2
      {
        OFFSET 11.9445 1.14441e-005 0
        CHANNELS 3 Zrotation Xrotation Yrotation
        JOINT Spine3
        {
          OFFSET 14.7254 4.19617e-005 0
          CHANNELS 3 Zrotation Xrotation Yrotation
          JOINT Spine4
          {
            OFFSET 10.9679 0 0
            CHANNELS 3 Zrotation Xrotation Yrotation
            JOINT RightShoulder
            {
              OFFSET 2.46616 -1.6653 3.69651
              CHANNELS 3 Zrotation Xrotation Yrotation
              JOINT RightArm
              {
                OFFSET 13.0012 0 0
                CHANNELS 3 Zrotation Xrotation Yrotation
                JOINT RightForeArm
                {
                  OFFSET 28.7848 1.52588e-005 0
                  CHANNELS 3 Zrotation Xrotation Yrotation
                  JOINT RightHand
                  {
                    OFFSET 26.5688 1.52588e-005 0
                    CHANNELS 3 Zrotation Xrotation Yrotation
                    End Site
                    {
                      OFFSET 0 0 0
                    }
                  }
                }
              }
            }
            JOINT LeftShoulder
            {
              OFFSET 2.38034 -1.29275 -3.7523
              CHANNELS 3 Zrotation Xrotation Yrotation
              JOINT LeftArm
              {
                OFFSET 16.3182 6.10351e-005 0
                CHANNELS 3 Zrotation Xrotation Yrotation
                JOINT LeftForeArm
                {
                  OFFSET 27.0901 0 0
                  CHANNELS 3 Zrotation Xrotation Yrotation
                  JOINT LeftHand
                  {
                    OFFSET 24.5451 1.52588e-005 0
                    CHANNELS 3 Zrotation Xrotation Yrotation
                    End Site
                    {
                      OFFSET 0 0 0
                    }
                  }
                }
              }
            }
            JOINT Neck
            {
              OFFSET 5.0226 -0.0266342 0
              CHANNELS 3 Zrotation Xrotation Yrotation
              JOINT Head
              {
                OFFSET 6.69363 2.86102e-005 0
                CHANNELS 3 Zrotation Xrotation Yrotation
                End Site
                {
                  OFFSET 0 0 0
                }
              }
            }
          }
        }
      }
    }
  }
}
MOTION
Frames:	16
Frame Time:	0.0416667
-59.767 97.576 17.7954 -76.9178 -86.4251 -77.2635 -172.06 4.88155 90.1296 -8.69714 6.95894 -0.496496 61.1771 1.637 2.13088 28.4541 -0.225417 -0.313675 173.216 5.02356 89.8622 -10.3515 -3.92484 -1.20239 63.3156 -1.87687 -0.999821 28.9904 0.172211 -2.58361 -0.043642 7.01528 -89.9822 12.8433 -0.0780438 0.0450214 1.17239 -0.0759952 0.0484007 -21.3628 -0.0879768 0.0194907 -1.35013 -0.087982 0.0194694 90.8847 -52.9774 -98.8415 22.7851 -7.97744 2.99437 -3.39784 -21.9629 -43.0111 -6.35265 -0.832441 5.10411 -105.709 -52.7864 57.0605 -19.4372 13.3677 6.01158 1.48099 8.20566 -32.211 11.2249 0.824209 3.2915 12.0005 0.868754 3.39513 -1.73819 0.0944929 -1.04552 
-59.5856 97.5643 18.0434 -64.0112 -86.2392 -63.5509 -171.971 6.18685 90.6708 -9.68478 7.33693 -0.402996 61.9936 2.09695 3.02423 28.1617 -0.360088 -1.18962 173.594 5.10442 90.5662 -9.23229 -3.49392 -1.00214 62.7835 -1.83055 -0.993952 28.8759 0.157418 -2.40091 -0.0352338 6.92428 -90.0707 13.0253 -0.103887 -0.128785 1.35432 -0.109453 -0.124092 -21.1808 -0.0603816 -0.154054 -1.16816 -0.0603782 -0.154056 91.0283 -53.0321 -98.6182 22.6192 -7.86114 2.28129 -2.88838 -23.8571 -41.3103 -7.19673 -0.872924 4.6288 -105.819 -52.7826 56.9072 -19.2073 13.5154 5.76776 1.40226 8.25954 -32.1146 11.4201 0.782245 2.8369 11.3402 0.899813 2.86291 -1.25086 0.259517 -0.76311 
-59.5004 97.5587 18.1781 -60.4057 -86.0761 -59.5036 -171.849 6.86451 91.0444 -10.462 7.79498 -0.408116 62.251 2.11558 3.59494 28.3324 -0.109734 -2.32029 173.784 4.83858 90.9308 -8.34427 -3.34822 -0.906655 62.4144 -1.81617 -0.99597 29.1037 0.166531 -2.45326 -0.0392415 6.90043 -90.1423 13.0727 -0.146279 -0.266712 1.40173 -0.157873 -0.260023 -21.1332 -0.0593602 -0.298349 -1.12058 -0.0593627 -0.298353 90.8344 -53.0861 -98.8941 22.2311 -7.82645 1.99705 -2.26379 -24.0363 -40.5879 -7.85655 -0.898261 4.4271 -105.866 -53.0185 56.9428 -19.0041 13.5172 5.54918 1.27771 8.07259 -32.1435 11.3773 0.802782 3.0286 11.2156 1.0008 3.1385 -1.10657 0.297751 -0.942542 
-59.505 97.5776 18.1672 -62.8083 -86.022 -61.9089 -171.823 6.72514 91.043 -10.4447 7.61261 -0.411721 62.2823 2.14987 3.45197 28.1234 -0.307564 -1.95578 173.848 4.81141 90.954 -8.49766 -3.39629 -0.997585 62.5416 -1.86543 -1.02383 28.7654 0.143701 -2.24774 -0.0359701 6.92016 -90.1565 13.0332 -0.146571 -0.295079 1.36228 -0.159423 -0.288345 -21.1726 -0.0511092 -0.325486 -1.15998 -0.0511177 -0.325496 90.8068 -53.074 -98.9374 22.2282 -7.73001 2.00171 -2.05269 -23.8845 -40.4431 -7.96183 -0.888774 4.24904 -105.99 -53.0629 56.7919 -18.9234 13.6305 5.68008 1.41674 8.20608 -32.5729 11.6238 0.833651 3.14796 10.8284 1.11484 3.07051 -0.573751 0.431735 -0.894762 
-59.5201 97.5809 18.2094 -62.7166 -85.9005 -61.7647 -171.819 6.73771 91.0811 -10.4324 7.56224 -0.374727 62.3591 2.18842 3.32845 28.0517 -0.414292 -1.47741 173.866 4.90629 91.008 -8.60734 -3.51278 -0.980686 62.4118 -1.81836 -0.995559 28.9404 0.160575 -2.4206 -0.0300498 6.92654 -90.1739 13.0205 -0.14316 -0.33029 1.34949 -0.157556 -0.32367 -21.1853 -0.0372841 -0.35804 -1.17268 -0.0372791 -0.358046 91.1808 -52.9634 -98.4053 22.5046 -7.43029 1.75759 -2.4786 -24.269 -40.5053 -7.77952 -0.925348 4.81625 -106.203 -53.1249 56.5268 -18.7149 13.5223 5.75913 1.66987 8.4005 -32.7936 11.1944 0.828799 3.34724 10.7233 1.05932 2.69469 -0.738974 0.485839 0.0382953 
-59.5482 97.5595 18.2734 -63.4338 -85.736 -62.4907 -171.725 6.78778 91.1256 -10.5899 7.34622 -0.470863 62.6194 2.29733 3.18141 27.87 -0.554122 -1.48069 173.873 4.72843 91.0287 -8.23569 -3.47565 -0.978882 62.5492 -1.89742 -1.04326 28.6769 0.126649 -2.02574 -0.0458973 6.92308 -90.1743 13.0248 -0.17484 -0.327361 1.3538 -0.189072 -0.319353 -21.181 -0.0683723 -0.364771 -1.1684 -0.0683687 -0.364771 90.8883 -53.0644 -98.8189 22.5748 -7.43835 2.01873 -2.27082 -23.8175 -40.6035 -7.34087 -0.893767 4.8427 -105.775 -53.1386 57.1172 -18.7904 13.55 5.66074 1.58698 8.28372 -32.7179 11.1278 0.847901 3.54302 10.5506 1.28804 2.90447 -0.786107 0.663872 -0.218396 
-59.5695 97.5639 18.3204 -62.5071 -85.6905 -61.6943 -171.816 6.64344 90.9965 -10.2092 7.3091 -0.431599 62.2672 2.20283 3.39523 28.4458 -0.0584482 -1.97946 173.8 5.09947 90.9075 -8.86397 -3.81821 -0.98025 62.4864 -1.81401 -0.990494 29.3368 0.188974 -2.69544 -0.0521233 6.9193 -90.1573 13.0368 -0.179014 -0.292561 1.36589 -0.191718 -0.284397 -21.169 -0.0828224 -0.332836 -1.15638 -0.0828141 -0.332833 91.1346 -53.3625 -98.3946 22.3854 -7.43628 1.87962 -2.58794 -24.3223 -40.4876 -7.75045 -0.920641 4.76216 -105.86 -53.014 56.9485 -18.6736 13.615 5.79562 1.37564 8.12477 -32.4339 10.9444 0.768932 2.98304 10.3375 1.33259 2.71731 -0.786952 0.760815 0.119621 
-59.6242 97.5403 18.3379 -64.0021 -85.6416 -63.2647 -171.746 6.54934 90.9895 -10.306 7.04948 -0.495785 62.6834 2.49174 3.01752 27.623 -0.727368 -1.63466 173.798 4.9792 90.8892 -8.7807 -3.50203 -1.00196 62.8256 -1.95251 -1.07108 28.7925 0.119286 -1.85673 -0.0510393 6.92476 -90.1503 13.0239 -0.173491 -0.27947 1.35295 -0.185618 -0.27156 -21.182 -0.0814778 -0.318687 -1.16934 -0.0814753 -0.318681 91.0763 -53.2656 -98.4996 22.5515 -7.54423 2.10628 -2.78538 -24.4295 -40.5068 -7.83318 -0.925102 4.72186 -105.767 -52.9054 57.0316 -18.8389 13.4088 6.0442 1.50186 8.07441 -32.5173 10.7985 0.739388 2.80812 10.0598 1.32573 2.71725 -0.577051 0.771118 0.447352 
-59.6364 97.531 18.399 -64.3203 -85.5864 -63.6316 -171.74 6.64173 90.9705 -10.4676 7.28275 -0.545839 62.2958 2.18038 3.49877 28.074 -0.325973 -2.13435 173.784 5.00664 90.8594 -8.90178 -3.58382 -1.00376 62.8762 -1.99751 -1.09894 28.9141 0.125618 -1.87962 -0.0475081 6.92974 -90.1539 13.0141 -0.168151 -0.287168 1.34313 -0.180632 -0.279489 -21.1918 -0.0740758 -0.324425 -1.17916 -0.0740857 -0.324442 90.9297 -53.4811 -98.6732 22.2958 -7.54158 2.17022 -2.33153 -24.1449 -40.2264 -8.09618 -0.920355 4.50072 -105.901 -52.9741 56.8758 -18.7987 13.2391 6.22962 1.58236 8.06352 -32.5429 10.6846 0.750372 2.96814 10.1324 1.30026 2.97257 -0.898257 0.688267 0.309462 
-59.6973 97.5344 18.4404 -65.0563 -85.6824 -64.4131 -171.74 6.49271 90.9653 -10.4597 7.00955 -0.522186 62.5517 2.44711 3.1997 28.1717 -0.258773 -2.06647 173.813 5.02015 90.8556 -9.1657 -3.60361 -1.05653 62.9414 -1.9872 -1.08971 29.0087 0.147898 -2.18605 -0.0687792 6.95497 -90.1426 12.9636 -0.20495 -0.260304 1.29268 -0.216218 -0.251041 -21.2423 -0.117261 -0.309874 -1.22968 -0.117246 -0.309867 90.8323 -53.2 -98.8739 22.6938 -7.51874 2.24562 -3.07662 -24.9172 -40.631 -8.00211 -0.946738 4.79832 -105.418 -52.7756 57.4555 -18.9593 13.2996 6.18319 1.37696 7.75697 -32.519 10.8139 0.725509 2.68109 10.2747 1.33305 2.90906 -1.1995 0.727602 0.267468 
-59.7127 97.5129 18.5045 -64.2979 -85.7812 -63.5842 -171.793 6.55904 90.9864 -10.648 7.19619 -0.441854 62.7068 2.53831 3.20369 27.7503 -0.6027 -1.86679 173.822 4.89945 90.9193 -9.02993 -3.41504 -1.00971 62.9868 -2.0345 -1.12075 28.9741 0.120794 -1.78756 -0.0613897 6.96198 -90.1573 12.9496 -0.19731 -0.29068 1.27864 -0.209918 -0.281727 -21.2563 -0.100828 -0.336546 -1.24365 -0.100827 -0.33655 91.1018 -53.1948 -98.4768 22.7142 -7.46873 2.18352 -3.00002 -24.8473 -40.5503 -8.16157 -0.954462 4.77935 -105.588 -52.8098 57.2363 -18.9922 13.1155 6.10846 1.4914 7.8926 -32.3069 10.7873 0.713624 2.59286 10.1685 1.25962 2.80654 -1.1464 0.683451 0.436718 
-59.7627 97.507 18.5142 -62.9739 -85.8209 -62.3974 -171.894 6.50361 90.8602 -10.4487 6.96143 -0.383891 62.6806 2.57402 3.02235 27.5938 -0.712632 -1.95564 173.801 5.14865 90.8371 -9.39515 -3.49504 -1.04067 63.0792 -2.02351 -1.11178 29.0917 0.146173 -2.12483 -0.0665802 6.95258 -90.1397 12.9684 -0.199174 -0.255121 1.29748 -0.210214 -0.246112 -21.2375 -0.113295 -0.303185 -1.22488 -0.113293 -0.303185 91.0605 -53.2844 -98.5199 22.6942 -7.47759 2.34484 -3.02852 -24.7278 -40.6108 -7.71167 -0.920646 4.7262 -105.479 -52.7516 57.3619 -19.0903 13.1773 6.11671 1.39785 7.822 -32.23 10.6162 0.728724 2.8176 9.95829 1.11849 2.64304 -1.08502 0.584177 0.478807 
-59.8295 97.5358 18.5603 -62.5992 -85.9584 -61.9175 -171.91 6.62986 90.9675 -10.7556 7.26982 -0.309462 62.6314 2.45209 3.12999 28.4412 -0.13079 -1.31606 173.898 4.84679 90.9747 -8.97638 -3.12292 -1.05759 63.0679 -2.06537 -1.13884 28.7635 0.111974 -1.74676 -0.0816788 6.96097 -90.1625 12.9515 -0.240073 -0.295744 1.28057 -0.252855 -0.284901 -21.2544 -0.140102 -0.354226 -1.24174 -0.140091 -0.354225 91.028 -53.2156 -98.5818 22.5661 -7.45635 2.26914 -3.12996 -24.8684 -40.664 -8.5915 -1.03413 5.40491 -105.208 -52.8245 57.765 -19.2435 13.2509 5.96882 1.47037 8.03694 -32.1927 10.5684 0.70916 2.67258 9.8865 1.05381 3.13095 -1.11309 0.410763 -0.102159 
-59.8348 97.509 18.6186 -62.3339 -85.851 -61.6727 -171.813 6.5033 91.0111 -10.4225 7.14795 -0.415679 62.5342 2.45632 3.09093 28.6575 0.0517664 -1.47179 173.86 5.01216 90.9601 -9.25143 -3.33979 -1.03402 63.0125 -2.00284 -1.09797 29.1589 0.142946 -2.03062 -0.053604 6.95681 -90.1575 12.9544 -0.182006 -0.293049 1.28344 -0.194726 -0.284762 -21.2515 -0.0855212 -0.334199 -1.23884 -0.0855194 -0.334204 91.0097 -53.1342 -98.6247 22.6078 -7.57203 2.36304 -3.09568 -24.7412 -40.8211 -8.93224 -1.0671 5.51362 -105.572 -52.6953 57.2108 -19.3431 13.0638 6.25646 1.57623 7.98248 -32.2772 10.6699 0.70936 2.6187 9.98264 1.02358 2.92687 -1.26863 0.426965 0.215643 
-59.8594 97.5218 18.6643 -61.3265 -85.9198 -60.6552 -171.905 6.64216 90.9755 -10.7224 7.32595 -0.313425 62.7066 2.51928 3.17272 28.2788 -0.26893 -1.19931 173.853 4.84723 90.9731 -8.93077 -3.18228 -1.00356 63.0502 -2.06154 -1.13696 28.9647 0.116898 -1.71397 -0.0674391 6.95713 -90.1637 12.9461 -0.212442 -0.301986 1.27518 -0.225529 -0.292349 -21.2597 -0.11187 -0.351879 -1.24709 -0.111865 -0.351872 90.8842 -52.9936 -98.8395 22.6423 -7.57027 2.48265 -3.21648 -24.4266 -41.0727 -7.52297 -0.938257 5.15401 -105.412 -52.8337 57.4881 -19.3063 13.105 6.14449 1.70318 8.24067 -32.3386 10.7966 0.747556 2.88137 10.248 1.25613 2.97554 -1.45629 0.640834 0.344779 
-59.8935 97.5287 18.7174 -60.7637 -85.9224 -60.1452 -171.923 6.58549 90.9487 -10.5949 7.41298 -0.311084 62.5447 2.40762 3.05435 28.7276 0.040582 -0.81698 173.879 4.85736 90.9685 -8.94262 -3.15571 -1.04778 63.0755 -2.06023 -1.13418 28.8802 0.130804 -1.9789 -0.0624318 6.96005 -90.1622 12.9469 -0.201773 -0.300027 1.27599 -0.214778 -0.290869 -21.2589 -0.102281 -0.346808 -1.24629 -0.102269 -0.346796 90.9306 -53.0531 -98.7583 22.4761 -7.5635 2.22091 -2.41696 -23.9493 -40.5737 -7.85574 -0.938262 4.95742 -105.541 -52.898 57.3384 -19.3121 13.1537 6.20138 1.6642 8.21506 -32.2717 10.7677 0.683358 2.34196 10.2645 1.3741 3.10534 -1.50298 0.73097 0.399094 
